<mxfile host="app.diagrams.net" modified="2022-05-10T18:30:06.412Z" agent="5.0 (Windows NT 10.0; Win64; x64) AppleWebKit/537.36 (KHTML, like Gecko) Chrome/100.0.4896.127 Safari/537.36" etag="_31XsFM-R9paJRI1iyfz" version="17.4.6" type="github">
  <diagram id="zMRvXG-4EBzOyceTgzDw" name="Page-1">
    <mxGraphModel dx="974" dy="851" grid="1" gridSize="10" guides="1" tooltips="1" connect="1" arrows="1" fold="1" page="1" pageScale="1" pageWidth="1169" pageHeight="1654" math="0" shadow="0">
      <root>
        <mxCell id="0" />
        <mxCell id="1" parent="0" />
        <mxCell id="PNjyXfOIIn4o3SOPxnzG-1" value="Motionssvømmer" style="swimlane;fontStyle=0;childLayout=stackLayout;horizontal=1;startSize=26;fillColor=none;horizontalStack=0;resizeParent=1;resizeParentMax=0;resizeLast=0;collapsible=1;marginBottom=0;fontSize=14;" vertex="1" parent="1">
          <mxGeometry x="320" y="120" width="200" height="52" as="geometry" />
        </mxCell>
        <mxCell id="PNjyXfOIIn4o3SOPxnzG-5" value="Træning" style="swimlane;fontStyle=0;childLayout=stackLayout;horizontal=1;startSize=26;fillColor=none;horizontalStack=0;resizeParent=1;resizeParentMax=0;resizeLast=0;collapsible=1;marginBottom=0;fontSize=14;" vertex="1" parent="1">
          <mxGeometry x="80" y="180" width="200" height="52" as="geometry" />
        </mxCell>
        <mxCell id="PNjyXfOIIn4o3SOPxnzG-9" value="Konkurrencesvømmer" style="swimlane;fontStyle=0;childLayout=stackLayout;horizontal=1;startSize=26;fillColor=none;horizontalStack=0;resizeParent=1;resizeParentMax=0;resizeLast=0;collapsible=1;marginBottom=0;fontSize=14;" vertex="1" parent="1">
          <mxGeometry x="584" y="120" width="200" height="52" as="geometry" />
        </mxCell>
        <mxCell id="PNjyXfOIIn4o3SOPxnzG-10" value="diciplin?" style="text;strokeColor=none;fillColor=none;align=left;verticalAlign=top;spacingLeft=4;spacingRight=4;overflow=hidden;rotatable=0;points=[[0,0.5],[1,0.5]];portConstraint=eastwest;fontSize=14;" vertex="1" parent="PNjyXfOIIn4o3SOPxnzG-9">
          <mxGeometry y="26" width="200" height="26" as="geometry" />
        </mxCell>
        <mxCell id="PNjyXfOIIn4o3SOPxnzG-15" value="Træner" style="swimlane;fontStyle=0;childLayout=stackLayout;horizontal=1;startSize=26;fillColor=none;horizontalStack=0;resizeParent=1;resizeParentMax=0;resizeLast=0;collapsible=1;marginBottom=0;fontSize=14;" vertex="1" parent="1">
          <mxGeometry x="80" y="280" width="200" height="80" as="geometry" />
        </mxCell>
        <mxCell id="PNjyXfOIIn4o3SOPxnzG-16" value="name&#xa;hold?" style="text;strokeColor=none;fillColor=none;align=left;verticalAlign=top;spacingLeft=4;spacingRight=4;overflow=hidden;rotatable=0;points=[[0,0.5],[1,0.5]];portConstraint=eastwest;fontSize=14;" vertex="1" parent="PNjyXfOIIn4o3SOPxnzG-15">
          <mxGeometry y="26" width="200" height="54" as="geometry" />
        </mxCell>
        <mxCell id="PNjyXfOIIn4o3SOPxnzG-19" value="Medlem" style="swimlane;fontStyle=0;childLayout=stackLayout;horizontal=1;startSize=26;fillColor=none;horizontalStack=0;resizeParent=1;resizeParentMax=0;resizeLast=0;collapsible=1;marginBottom=0;fontSize=14;" vertex="1" parent="1">
          <mxGeometry x="400" y="280" width="200" height="110" as="geometry" />
        </mxCell>
        <mxCell id="PNjyXfOIIn4o3SOPxnzG-20" value="alder" style="text;strokeColor=none;fillColor=none;align=left;verticalAlign=top;spacingLeft=4;spacingRight=4;overflow=hidden;rotatable=0;points=[[0,0.5],[1,0.5]];portConstraint=eastwest;fontSize=14;" vertex="1" parent="PNjyXfOIIn4o3SOPxnzG-19">
          <mxGeometry y="26" width="200" height="26" as="geometry" />
        </mxCell>
        <mxCell id="PNjyXfOIIn4o3SOPxnzG-22" value="betalingsstatus&#xa;&#xa;medlemskabsstatus&#xa;" style="text;strokeColor=none;fillColor=none;align=left;verticalAlign=top;spacingLeft=4;spacingRight=4;overflow=hidden;rotatable=0;points=[[0,0.5],[1,0.5]];portConstraint=eastwest;fontSize=14;" vertex="1" parent="PNjyXfOIIn4o3SOPxnzG-19">
          <mxGeometry y="52" width="200" height="58" as="geometry" />
        </mxCell>
        <mxCell id="PNjyXfOIIn4o3SOPxnzG-23" value="Resistance" style="swimlane;fontStyle=0;childLayout=stackLayout;horizontal=1;startSize=26;fillColor=none;horizontalStack=0;resizeParent=1;resizeParentMax=0;resizeLast=0;collapsible=1;marginBottom=0;fontSize=14;" vertex="1" parent="1">
          <mxGeometry x="680" y="300" width="200" height="52" as="geometry" />
        </mxCell>
        <mxCell id="PNjyXfOIIn4o3SOPxnzG-27" value="Stævne" style="swimlane;fontStyle=0;childLayout=stackLayout;horizontal=1;startSize=26;fillColor=none;horizontalStack=0;resizeParent=1;resizeParentMax=0;resizeLast=0;collapsible=1;marginBottom=0;fontSize=14;" vertex="1" parent="1">
          <mxGeometry x="80" y="400" width="200" height="52" as="geometry" />
        </mxCell>
        <mxCell id="PNjyXfOIIn4o3SOPxnzG-28" value="+ field: type" style="text;strokeColor=none;fillColor=none;align=left;verticalAlign=top;spacingLeft=4;spacingRight=4;overflow=hidden;rotatable=0;points=[[0,0.5],[1,0.5]];portConstraint=eastwest;fontSize=14;" vertex="1" parent="PNjyXfOIIn4o3SOPxnzG-27">
          <mxGeometry y="26" width="200" height="26" as="geometry" />
        </mxCell>
        <mxCell id="PNjyXfOIIn4o3SOPxnzG-31" value="Medlemsstype" style="swimlane;fontStyle=0;childLayout=stackLayout;horizontal=1;startSize=26;fillColor=none;horizontalStack=0;resizeParent=1;resizeParentMax=0;resizeLast=0;collapsible=1;marginBottom=0;fontSize=14;" vertex="1" parent="1">
          <mxGeometry x="400" y="440" width="200" height="52" as="geometry" />
        </mxCell>
        <mxCell id="PNjyXfOIIn4o3SOPxnzG-35" value="Kontingent" style="swimlane;fontStyle=0;childLayout=stackLayout;horizontal=1;startSize=26;fillColor=none;horizontalStack=0;resizeParent=1;resizeParentMax=0;resizeLast=0;collapsible=1;marginBottom=0;fontSize=14;" vertex="1" parent="1">
          <mxGeometry x="680" y="440" width="140" height="52" as="geometry" />
        </mxCell>
        <mxCell id="PNjyXfOIIn4o3SOPxnzG-39" value="Domænemodel for svømmeklubben Delfinen" style="text;align=center;fontStyle=1;verticalAlign=middle;spacingLeft=3;spacingRight=3;strokeColor=none;rotatable=0;points=[[0,0.5],[1,0.5]];portConstraint=eastwest;fontSize=21;" vertex="1" parent="1">
          <mxGeometry x="430" y="60" width="80" height="26" as="geometry" />
        </mxCell>
        <mxCell id="PNjyXfOIIn4o3SOPxnzG-42" value="" style="endArrow=none;html=1;rounded=0;exitX=0.458;exitY=-0.004;exitDx=0;exitDy=0;exitPerimeter=0;entryX=0.5;entryY=1;entryDx=0;entryDy=0;fontSize=14;" edge="1" parent="1" source="PNjyXfOIIn4o3SOPxnzG-19" target="PNjyXfOIIn4o3SOPxnzG-1">
          <mxGeometry width="50" height="50" relative="1" as="geometry">
            <mxPoint x="440" y="222" as="sourcePoint" />
            <mxPoint x="490" y="172" as="targetPoint" />
          </mxGeometry>
        </mxCell>
        <mxCell id="PNjyXfOIIn4o3SOPxnzG-43" value="" style="endArrow=none;html=1;rounded=0;entryX=0.306;entryY=0.977;entryDx=0;entryDy=0;entryPerimeter=0;fontSize=14;" edge="1" parent="1" source="PNjyXfOIIn4o3SOPxnzG-19" target="PNjyXfOIIn4o3SOPxnzG-10">
          <mxGeometry width="50" height="50" relative="1" as="geometry">
            <mxPoint x="681.5999999999999" y="267.55999999999995" as="sourcePoint" />
            <mxPoint x="650" y="170" as="targetPoint" />
          </mxGeometry>
        </mxCell>
        <mxCell id="PNjyXfOIIn4o3SOPxnzG-44" value="" style="endArrow=none;html=1;rounded=0;entryX=0;entryY=0.5;entryDx=0;entryDy=0;fontSize=14;" edge="1" parent="1">
          <mxGeometry width="50" height="50" relative="1" as="geometry">
            <mxPoint x="600" y="344" as="sourcePoint" />
            <mxPoint x="679.9999999999998" y="345" as="targetPoint" />
          </mxGeometry>
        </mxCell>
        <mxCell id="PNjyXfOIIn4o3SOPxnzG-45" value="" style="endArrow=none;html=1;rounded=0;fontSize=14;entryX=-0.005;entryY=0.93;entryDx=0;entryDy=0;entryPerimeter=0;" edge="1" parent="1" target="PNjyXfOIIn4o3SOPxnzG-20">
          <mxGeometry width="50" height="50" relative="1" as="geometry">
            <mxPoint x="280" y="330" as="sourcePoint" />
            <mxPoint x="400" y="320" as="targetPoint" />
          </mxGeometry>
        </mxCell>
        <mxCell id="PNjyXfOIIn4o3SOPxnzG-46" value="" style="endArrow=none;html=1;rounded=0;exitX=0.5;exitY=0;exitDx=0;exitDy=0;fontSize=14;" edge="1" parent="1" source="PNjyXfOIIn4o3SOPxnzG-15">
          <mxGeometry width="50" height="50" relative="1" as="geometry">
            <mxPoint x="130" y="282" as="sourcePoint" />
            <mxPoint x="180" y="232" as="targetPoint" />
          </mxGeometry>
        </mxCell>
        <mxCell id="PNjyXfOIIn4o3SOPxnzG-47" value="" style="endArrow=none;html=1;rounded=0;exitX=0.5;exitY=0;exitDx=0;exitDy=0;fontSize=14;" edge="1" parent="1" source="PNjyXfOIIn4o3SOPxnzG-27">
          <mxGeometry width="50" height="50" relative="1" as="geometry">
            <mxPoint x="130" y="408" as="sourcePoint" />
            <mxPoint x="180" y="358" as="targetPoint" />
          </mxGeometry>
        </mxCell>
        <mxCell id="PNjyXfOIIn4o3SOPxnzG-48" value="" style="endArrow=none;html=1;rounded=0;entryX=0.546;entryY=-0.005;entryDx=0;entryDy=0;entryPerimeter=0;exitX=0.54;exitY=1.023;exitDx=0;exitDy=0;exitPerimeter=0;fontSize=14;" edge="1" parent="1" source="PNjyXfOIIn4o3SOPxnzG-22" target="PNjyXfOIIn4o3SOPxnzG-31">
          <mxGeometry width="50" height="50" relative="1" as="geometry">
            <mxPoint x="450" y="400" as="sourcePoint" />
            <mxPoint x="500" y="350" as="targetPoint" />
          </mxGeometry>
        </mxCell>
        <mxCell id="PNjyXfOIIn4o3SOPxnzG-49" value="" style="endArrow=none;html=1;rounded=0;fontSize=14;" edge="1" parent="1">
          <mxGeometry width="50" height="50" relative="1" as="geometry">
            <mxPoint x="600" y="460" as="sourcePoint" />
            <mxPoint x="680" y="460" as="targetPoint" />
          </mxGeometry>
        </mxCell>
      </root>
    </mxGraphModel>
  </diagram>
</mxfile>
